<svg xmlns="http://www.w3.org/2000/svg" width="16" height="16" viewBox="0 0 16 16" fill="none">
  <path d="M15.7837 8.11366C15.7837 7.56968 15.7438 7.04571 15.6573 6.53375H8.16016V9.34842H12.4199C12.2402 10.2736 11.674 11.0553 10.8324 11.5725V13.4411H13.3785C14.8597 12.1309 15.7837 10.3107 15.7837 8.11366Z" fill="#4285F4"/>
  <path d="M8.16021 15.9999C10.3175 15.9999 12.1303 15.2915 13.382 13.441L10.8358 11.5724C10.1233 12.0596 9.21694 12.3433 8.16353 12.3433C6.08012 12.3433 4.32605 11.0032 3.68322 9.17969H1.06128V11.1017C2.3053 13.9868 5.05335 15.9999 8.16021 15.9999Z" fill="#34A853"/>
  <path d="M3.68001 9.17954C3.52695 8.73008 3.44365 8.24813 3.44365 7.7496C3.44365 7.25107 3.53027 6.76912 3.68001 6.31967V4.39771H1.06139C0.538898 5.39146 0.246094 6.5316 0.246094 7.7496C0.246094 8.9676 0.538898 10.1077 1.06139 11.1015L3.68001 9.17954Z" fill="#FBBC05"/>
  <path d="M8.16021 3.15641C9.33622 3.15641 10.3838 3.5625 11.1787 4.3177L13.421 2.07539C12.1269 0.888354 10.3175 0.133331 8.16021 0.133331C5.05335 0.133331 2.3053 2.14649 1.06128 5.03161L3.6799 6.95357C4.32273 5.12998 6.07679 3.78986 8.16021 3.78986" fill="#EA4335"/>
</svg>
