<svg xmlns="http://www.w3.org/2000/svg" width="56" height="56" viewBox="0 0 56 56" fill="none">
  <rect width="56" height="56" rx="16" fill="#4F46E5"/>
  <path d="M28 16C21.373 16 16 21.373 16 28C16 34.627 21.373 40 28 40C34.627 40 40 34.627 40 28C40 21.373 34.627 16 28 16ZM28 37.333C22.845 37.333 18.667 33.155 18.667 28C18.667 22.845 22.845 18.667 28 18.667C33.155 18.667 37.333 22.845 37.333 28C37.333 33.155 33.155 37.333 28 37.333Z" fill="white"/>
  <path d="M33.3334 27.3332H28.6667V22.6665C28.6667 21.9332 28.0667 21.3332 27.3334 21.3332C26.6001 21.3332 26.0001 21.9332 26.0001 22.6665V28.6665C26.0001 29.3999 26.6001 29.9999 27.3334 29.9999H33.3334C34.0667 29.9999 34.6667 29.3999 34.6667 28.6665C34.6667 27.9332 34.0667 27.3332 33.3334 27.3332Z" fill="white"/>
</svg>
